<svg width="38" height="39" viewBox="0 0 38 39" fill="none" xmlns="http://www.w3.org/2000/svg">
<g opacity="0.2">
<path d="M19.7818 24.9873C18.2669 26.4959 13.8555 37.1451 13.8555 37.1451C13.2081 38.3162 14.1768 39.1665 16.3801 38.0525L24.2964 33.7527C28.5618 31.392 29.3864 30.7753 29.3299 25.9695L28.5365 20.2949C28.2648 18.351 26.8034 17.9942 25.2885 19.5028L19.7818 24.9873Z" fill="#231F20"/>
</g>
<g opacity="0.2">
<path d="M13.5555 19.6981C12.0566 21.2228 1.47574 25.6627 1.47574 25.6627C0.312077 26.3143 -0.532734 25.3393 0.574094 23.1219L4.84632 15.1544C7.19195 10.8615 7.8046 10.0316 12.5797 10.0884L18.2178 10.887C20.1493 11.1604 20.5037 12.6312 19.0049 14.1559L13.5555 19.6981Z" fill="#231F20"/>
</g>
<path fill-rule="evenodd" clip-rule="evenodd" d="M18.6211 23.191C17.1992 24.7264 13.0587 35.5649 13.0587 35.5649C12.451 36.7569 13.3603 37.6223 15.4283 36.4885L22.8585 32.1123C26.8619 29.7095 27.6359 29.0819 27.5829 24.1906L26.8381 18.4152C26.5832 16.4367 25.2115 16.0736 23.7896 17.609L18.6211 23.191Z" fill="#F96E6F"/>
<path fill-rule="evenodd" clip-rule="evenodd" d="M13.7382 19.4043C12.2126 21.0143 1.4437 25.7024 1.4437 25.7024C0.259356 26.3905 -0.600473 25.361 0.526031 23.0195L4.8742 14.6065C7.26152 10.0736 7.88507 9.19725 12.745 9.25726L18.4834 10.1005C20.4492 10.3892 20.81 11.9422 19.2844 13.5522L13.7382 19.4043Z" fill="#F96E6F"/>
<g opacity="0.2">
<path d="M9.42222 24.7873C14.0878 19.8445 18.0077 21.3525 18.0077 21.3525C18.0077 21.3525 19.432 25.5053 14.7655 30.4482C10.099 35.391 2.54428 38.9818 1.95579 38.3583C1.38569 37.7534 4.7557 29.7302 9.42222 24.7873Z" fill="#231F20"/>
</g>
<path fill-rule="evenodd" clip-rule="evenodd" d="M9.4753 22.4171C14.2072 17.1266 18.1827 18.7407 18.1827 18.7407C18.1827 18.7407 19.6272 23.1856 14.8945 28.4761C10.1617 33.7666 2.49969 37.6098 1.90285 36.9425C1.32466 36.295 4.74252 27.7076 9.4753 22.4171Z" fill="#FFAF63"/>
<path d="M13.1533 18.7154C17.8852 13.4249 21.8607 15.0389 21.8607 15.0389C21.8607 15.0389 23.3053 19.4838 18.5725 24.7743C13.8397 30.0648 6.17772 33.9081 5.58087 33.2408C5.00268 32.5943 8.42148 24.0058 13.1533 18.7154Z" fill="#F5CF87"/>
<g opacity="0.2">
<path d="M30.6615 22.5456C23.2325 30.5211 11.8436 28.3388 11.8436 28.3388C11.8436 28.3388 9.81083 16.1132 17.2398 8.13674C24.6689 0.160274 35.9246 -0.687308 37.4028 0.899611C38.8363 2.43853 38.0915 14.5702 30.6615 22.5456Z" fill="#231F20"/>
</g>
<path fill-rule="evenodd" clip-rule="evenodd" d="M29.6266 21.8277C22.3845 29.6316 11.282 27.4963 11.282 27.4963C11.282 27.4963 9.3004 15.5337 16.5425 7.72879C23.7847 -0.0760904 34.7573 -0.90544 36.1983 0.647343C37.5957 2.15316 36.8696 14.0239 29.6266 21.8277Z" fill="white"/>
<g opacity="0.2">
<path d="M8.46023 33.1043C7.69984 33.9074 7.1556 34.6344 6.39522 33.8313C5.63484 33.0282 6.32318 32.4534 7.08356 31.6504L16.7212 18.5625C17.4816 17.7594 20.7802 17.0324 21.5405 17.8355C22.3009 18.6386 21.6126 22.1224 20.8522 22.9254L8.46023 33.1043Z" fill="#231F20"/>
</g>
<path fill-rule="evenodd" clip-rule="evenodd" d="M9.58578 30.3914C8.87803 31.1928 8.37147 31.9182 7.66372 31.1168C6.95598 30.3155 7.59666 29.7419 8.30441 28.9406L17.2749 15.8809C17.9826 15.0795 21.0529 14.3541 21.7606 15.1555C22.4684 15.9568 21.8277 19.4331 21.1199 20.2345L9.58578 30.3914Z" fill="#F96E6F"/>
<g opacity="0.2">
<circle r="3.8345" transform="matrix(0.704828 -0.709378 0.704828 0.709378 26.7685 13.0955)" fill="#231F20"/>
</g>
<g opacity="0.2">
<circle r="2.10852" transform="matrix(0.704828 -0.709378 0.704828 0.709378 31.0118 7.39655)" fill="#231F20"/>
</g>
<circle r="3.87322" transform="matrix(0.704828 -0.709378 0.704828 0.709378 26.0092 11.1418)" fill="#838E9E"/>
<circle r="1.93661" transform="matrix(0.704828 -0.709378 0.704828 0.709378 31.3441 5.5235)" fill="#838E9E"/>
</svg>
